<svg xmlns="http://www.w3.org/2000/svg" viewBox="0 0 39.27 43.91"><defs><style>.cls-1{fill:#fff;}</style></defs><title>Abrir Sidebar</title><g id="Layer_2" data-name="Layer 2"><g id="Camada_1" data-name="Camada 1"><path class="cls-1" d="M24.19,28.16V24H10.43a2,2,0,0,1-2-2.32A2.06,2.06,0,0,1,10.53,20H24.19v-4.2a2.18,2.18,0,0,1,3.26-1.89l10.73,6.2a2.18,2.18,0,0,1,0,3.77L27.45,30A2.18,2.18,0,0,1,24.19,28.16Z"/><path class="cls-1" d="M1.5,43.91A1.5,1.5,0,0,1,0,42.41V1.5a1.5,1.5,0,0,1,3,0V42.41A1.5,1.5,0,0,1,1.5,43.91Z"/></g></g></svg>