<svg xmlns="http://www.w3.org/2000/svg" viewBox="0 0 44.35 43.22"><defs><style>.cls-1{fill:#fff;}</style></defs><g id="Layer_2" data-name="Layer 2"><g id="Camada_1" data-name="Camada 1"><path class="cls-1" d="M20.64,19.49a6.11,6.11,0,1,1-6-7.06A11.54,11.54,0,0,1,14.17,10,8.56,8.56,0,1,0,23,20.3,11.06,11.06,0,0,1,20.64,19.49Z"/><path class="cls-1" d="M20.25,28.12H19.2l-.21,0a10.49,10.49,0,0,1-8.77,0L9,28.12a9,9,0,0,0-9,9V39.7a3.53,3.53,0,0,0,3.52,3.52H25.69a3.53,3.53,0,0,0,3.52-3.52V37.08A9,9,0,0,0,20.25,28.12ZM26.76,39.7a1.07,1.07,0,0,1-1.07,1.08H3.52A1.07,1.07,0,0,1,2.45,39.7V37.08A6.52,6.52,0,0,1,9,30.57h.65a13,13,0,0,0,10,0h.65a6.52,6.52,0,0,1,6.51,6.51Z"/><path class="cls-1" d="M29.11,23.86l-3.4,3.4a10,10,0,0,0-3.47-.63H22.1L25.72,23a9.62,9.62,0,0,1-.23-2.44,11,11,0,0,0,3-.43A6.59,6.59,0,0,0,28.82,23Z"/><path class="cls-1" d="M44.35,20.93a9.51,9.51,0,0,1-2.76,6.7,9.39,9.39,0,0,1-8.76,2.51L31,32a9.83,9.83,0,0,0-1.79-2.45L32,26.75l.88.29A6.44,6.44,0,0,0,41.36,21l-3.44,3.44-5.57-.93-.79-4.73a11.34,11.34,0,0,0,4.94-7.14c.23,0,.45.08.68.14a2.16,2.16,0,0,1,1,3.63L34.63,19,35,20.89l1.94.33,3.56-3.57a2.16,2.16,0,0,1,2.11-.55,2.13,2.13,0,0,1,1.51,1.56A9.22,9.22,0,0,1,44.35,20.93Z"/><path class="cls-1" d="M30,10.27h-9a1,1,0,0,1,0-2h9a1,1,0,0,1,0,2Z"/><path class="cls-1" d="M25.45,14.79a1,1,0,0,1-1-1v-9a1,1,0,0,1,2,0v9A1,1,0,0,1,25.45,14.79Z"/><path class="cls-1" d="M25.45,18.54a9.27,9.27,0,1,1,9.27-9.27A9.28,9.28,0,0,1,25.45,18.54ZM25.45,1a8.27,8.27,0,1,0,8.27,8.27A8.28,8.28,0,0,0,25.45,1Z"/></g></g></svg>