<svg xmlns="http://www.w3.org/2000/svg" viewBox="0 0 55.06 38.81"><defs><style>.cls-1{fill:#fff;}</style></defs><g id="Layer_2" data-name="Layer 2"><g id="Camada_1" data-name="Camada 1"><g id="Camada_2" data-name="Camada 2"><g id="Camada_1-2" data-name="Camada 1-2"><path class="cls-1" d="M48.59,20.13a11.19,11.19,0,0,1-2.33.34A3.43,3.43,0,0,1,43.54,26h0a3.43,3.43,0,0,1-1.89-6.29,11,11,0,0,1-2.06-1.09,5.55,5.55,0,0,0-1.65,3.95h0a5.6,5.6,0,0,0,11.2,0A5.71,5.71,0,0,0,48.59,20.13Z"/><path class="cls-1" d="M46.6,29h-.68a4.74,4.74,0,0,1-4.75,0h-.72c-2.69,0-4.87,2.63-4.87,5.87v1.73a2.09,2.09,0,0,0,1.91,2.26H49.57a2.09,2.09,0,0,0,1.9-2.26V34.82C51.47,31.58,49.29,29,46.6,29Zm3,7.68H37.49a.11.11,0,0,1,0-.08V34.82c0-2.09,1.35-3.7,3-3.7h.24a6.38,6.38,0,0,0,5.68,0h.23c1.62,0,3,1.66,3,3.7Z"/><path class="cls-1" d="M25.75,16.94a5.6,5.6,0,0,0-5.6,5.6h0a5.6,5.6,0,1,0,5.6-5.61Zm0,9h0a3.43,3.43,0,1,1,3.42-3.44A3.43,3.43,0,0,1,25.75,26Z"/><path class="cls-1" d="M28.82,29h-.66a4.74,4.74,0,0,1-4.75,0h-.7c-2.69,0-4.87,2.63-4.87,5.87v1.73a2.09,2.09,0,0,0,1.91,2.26h12a2.1,2.1,0,0,0,1.9-2.26V34.82C33.69,31.58,31.5,29,28.82,29Zm3,7.68H19.71V34.82c0-2,1.3-3.7,2.95-3.7h.25a6.38,6.38,0,0,0,5.68,0h.23c1.65,0,3,1.66,3,3.7Z"/><path class="cls-1" d="M8,16.94a5.6,5.6,0,0,0-5.61,5.59v0A5.6,5.6,0,1,0,8,16.94Zm0,9H8a3.43,3.43,0,1,1,3.44-3.44A3.43,3.43,0,0,1,8,26Z"/><path class="cls-1" d="M15.9,36.55V34.82C15.9,31.58,13.72,29,11,29h-.65a4.75,4.75,0,0,1-4.76,0H4.88C2.2,29,0,31.58,0,34.82v1.73a2.1,2.1,0,0,0,1.91,2.26H14a2.11,2.11,0,0,0,1.92-2.26ZM14,36.63H1.93V34.82c0-2.09,1.33-3.7,3-3.7h.23a6.42,6.42,0,0,0,5.7,0h.23c1.62,0,2.95,1.66,2.95,3.7Z"/><path class="cls-1" d="M34.58,9.27c0,.21,0,.42,0,.63H7.16v5.42H7a6.63,6.63,0,0,0-1.75.45l-.18.07V9.71A1.91,1.91,0,0,1,7,7.81H34.68A10.14,10.14,0,0,0,34.58,9.27Z"/></g><path class="cls-1" d="M50.3,10.27h-9a1,1,0,0,1,0-2h9a1,1,0,0,1,0,2Z"/><path class="cls-1" d="M45.79,14.79a1,1,0,0,1-1-1v-9a1,1,0,0,1,2,0v9A1,1,0,0,1,45.79,14.79Z"/><path class="cls-1" d="M45.79,18.54a9.27,9.27,0,1,1,9.27-9.27A9.28,9.28,0,0,1,45.79,18.54ZM45.79,1a8.27,8.27,0,1,0,8.27,8.27A8.28,8.28,0,0,0,45.79,1Z"/></g></g></g></svg>