<svg xmlns="http://www.w3.org/2000/svg" viewBox="0 0 60.65 43.23"><defs><style>.cls-1{fill:#fff;}</style></defs><title>Adicionar Instrutor</title><g id="Layer_2" data-name="Layer 2"><g id="Camada_1" data-name="Camada 1"><path class="cls-1" d="M40.54,27.11A8.58,8.58,0,0,0,49,20.16a4.37,4.37,0,0,1-.49-.12L48,19.9l-.44-.16a3.8,3.8,0,0,1-.47-.18c-.16-.06-.32-.14-.48-.21a6.11,6.11,0,1,1-6.05-6.92h.14c0-.17-.1-.34-.14-.51s-.08-.33-.11-.49,0-.3-.08-.45-.05-.33-.06-.5,0-.33,0-.5a8.56,8.56,0,0,0,.3,17.12Z"/><path class="cls-1" d="M46.18,28.12h-1l-.21.05a10.51,10.51,0,0,1-8.76,0l-1.26-.05a9,9,0,0,0-9,9v2.62a3.53,3.53,0,0,0,3.53,3.52H51.62a3.53,3.53,0,0,0,3.53-3.52V37.09A9,9,0,0,0,46.18,28.12ZM52.7,39.71a1.07,1.07,0,0,1-1.08,1.07H29.46a1.07,1.07,0,0,1-1.08-1.07V37.09a6.52,6.52,0,0,1,6.52-6.52h.64a13,13,0,0,0,10,0h.64a6.52,6.52,0,0,1,6.52,6.52Z"/><path class="cls-1" d="M55.9,10.27h-9a1,1,0,0,1,0-2h9a1,1,0,0,1,0,2Z"/><path class="cls-1" d="M51.38,14.79a1,1,0,0,1-1-1v-9a1,1,0,0,1,2,0v9A1,1,0,0,1,51.38,14.79Z"/><path class="cls-1" d="M51.38,18.54a9.27,9.27,0,1,1,9.27-9.27A9.28,9.28,0,0,1,51.38,18.54ZM51.38,1a8.27,8.27,0,1,0,8.27,8.27A8.28,8.28,0,0,0,51.38,1Z"/><path class="cls-1" d="M19.79,42.68A5,5,0,0,1,16.07,41l-2.85-3.13a5,5,0,1,1,7.43-6.78l2.86,3.14a5,5,0,0,1-3.72,8.41ZM16.93,32.49a2,2,0,0,0-1.49,3.4L18.29,39a2,2,0,0,0,3-2.73l-2.85-3.13A2,2,0,0,0,16.93,32.49Z"/><path class="cls-1" d="M14.56,33.41A1.48,1.48,0,0,1,13.47,33L.41,19.18a1.5,1.5,0,0,1,2.18-2.07L15.65,30.88A1.5,1.5,0,0,1,15.59,33,1.47,1.47,0,0,1,14.56,33.41Z"/></g></g></svg>