<svg xmlns="http://www.w3.org/2000/svg" viewBox="0 0 42.28 47.93"><defs><style>.cls-1{fill:#fff;}</style></defs><title>Adicionar Aluno</title><g id="Layer_2" data-name="Layer 2"><g id="Camada_1" data-name="Camada 1"><path class="cls-1" d="M22.17,31.81a8.58,8.58,0,0,0,8.41-6.95,4.37,4.37,0,0,1-.49-.12l-.48-.14-.44-.16a3.8,3.8,0,0,1-.47-.18l-.48-.21a6.11,6.11,0,1,1-6-6.92h.14c0-.17-.1-.34-.14-.51s-.08-.33-.11-.49,0-.3-.08-.45-.05-.33-.06-.5,0-.33-.05-.5a8.56,8.56,0,0,0,.3,17.12Z"/><path class="cls-1" d="M27.81,32.82h-1l-.21,0a10.51,10.51,0,0,1-8.76,0l-1.26,0a9,9,0,0,0-9,9v2.62a3.53,3.53,0,0,0,3.53,3.52H33.25a3.53,3.53,0,0,0,3.53-3.52V41.79A9,9,0,0,0,27.81,32.82Zm6.52,11.59a1.07,1.07,0,0,1-1.08,1.07H11.09A1.07,1.07,0,0,1,10,44.41V41.79a6.52,6.52,0,0,1,6.52-6.52h.64a13,13,0,0,0,10,0h.64a6.52,6.52,0,0,1,6.52,6.52Z"/><path class="cls-1" d="M3.13,21.33a1.37,1.37,0,0,1-1-.46,1.41,1.41,0,0,1-.36-1.16l.56-3.63a1.9,1.9,0,0,1-.49-1.15,1.93,1.93,0,0,1,.34-1.22H2.08a1.69,1.69,0,0,1-1.86-.78,1.7,1.7,0,0,1,.25-2l7-7.52A3.65,3.65,0,0,1,9.32,2.34l10-2.29a1.7,1.7,0,0,1,1.87.78,1.7,1.7,0,0,1-.25,2L18.2,5.78l2.74,3.64c.36.61.47,1.69-1,3.35a16.22,16.22,0,0,1-4,3.13c-3.17,1.83-7.07,3-8.13,1.12l0-.09L6,12.82,5.46,13c-.08.16-.17.35-.24.52a1.9,1.9,0,0,1,.2,2.4l1,3.52a1.39,1.39,0,0,1-.2,1.2,1.37,1.37,0,0,1-1.06.6l-2,.14Zm.78-4.6-.44,2.88,1.26-.08Zm5.35-.55c.33.26,2.56.13,5.8-1.74s4.46-3.72,4.41-4.17L17.72,8l-2.95,3.17a4.77,4.77,0,0,1-2.43,1.4l-4.22,1ZM3.76,14.5l-.12.08a.24.24,0,0,0,0,.44l.15.09L3.94,15a.24.24,0,0,0,0-.43ZM19.68,1.7,9.7,4a2,2,0,0,0-1,.58l-7,7.51,3-.69h0l7-1.62a1.9,1.9,0,0,0,1-.57Z"/><path class="cls-1" d="M37.53,15h-9a1,1,0,0,1,0-2h9a1,1,0,0,1,0,2Z"/><path class="cls-1" d="M33,19.49a1,1,0,0,1-1-1v-9a1,1,0,0,1,2,0v9A1,1,0,0,1,33,19.49Z"/><path class="cls-1" d="M33,23.25A9.27,9.27,0,1,1,42.28,14,9.28,9.28,0,0,1,33,23.25ZM33,5.71A8.27,8.27,0,1,0,41.28,14,8.28,8.28,0,0,0,33,5.71Z"/></g></g></svg>