<svg xmlns="http://www.w3.org/2000/svg" viewBox="0 0 47.55 38.81"><defs><style>.cls-1{fill:#fff;}</style></defs><title>adicionar curso</title><g id="Layer_2" data-name="Layer 2"><g id="Camada_1" data-name="Camada 1"><path class="cls-1" d="M42.79,10.27h-9a1,1,0,0,1,0-2h9a1,1,0,0,1,0,2Z"/><path class="cls-1" d="M38.28,14.79a1,1,0,0,1-1-1v-9a1,1,0,0,1,2,0v9A1,1,0,0,1,38.28,14.79Z"/><path class="cls-1" d="M38.28,18.54a9.27,9.27,0,1,1,9.27-9.27A9.28,9.28,0,0,1,38.28,18.54ZM38.28,1a8.27,8.27,0,1,0,8.27,8.27A8.28,8.28,0,0,0,38.28,1Z"/><path class="cls-1" d="M0,9.52V33.09A1.71,1.71,0,0,0,1.71,34.8H14.92a4.94,4.94,0,0,1,.37-1.71H1.71V9.52H27.63V9.27a10.14,10.14,0,0,1,.1-1.46h-26A1.72,1.72,0,0,0,0,9.52Zm38.28,10.4q-.37,0-.75,0V32.3a5,5,0,0,1,.75,2.32,1.71,1.71,0,0,0,1-1.53V19.87A7.72,7.72,0,0,1,38.28,19.92Z"/><path class="cls-1" d="M26.6,16.68a5.53,5.53,0,1,0,5.54,5.53A5.53,5.53,0,0,0,26.6,16.68Zm0,9.35a3.82,3.82,0,1,1,3.83-3.82A3.83,3.83,0,0,1,26.6,26Zm3.88,3.09h-.72a7.46,7.46,0,0,1-6.31,0h-.72a5.82,5.82,0,0,0-5.81,5.81v1.8A2.08,2.08,0,0,0,19,38.81H34.21a2.08,2.08,0,0,0,2.08-2.08v-1.8A5.82,5.82,0,0,0,30.48,29.12Zm4.1,7.61a.38.38,0,0,1-.37.37H19a.38.38,0,0,1-.37-.37v-1.8a4.11,4.11,0,0,1,4.1-4.1h.37a9.13,9.13,0,0,0,7,0h.37a4.11,4.11,0,0,1,4.1,4.1Z"/><path class="cls-1" d="M11.68,31.58a1,1,0,0,1,.94.68H7.19a1,1,0,0,1,1-.68h3.54m0-1H8.14a2,2,0,0,0-2,2v.68h7.54v-.68a2,2,0,0,0-2-2Z"/></g></g></svg>