<svg xmlns="http://www.w3.org/2000/svg" viewBox="0 0 44.35 33.24"><defs><style>.cls-1{fill:#b3b3b3;}</style></defs><title>Admin Desativado</title><g id="Layer_2" data-name="Layer 2"><g id="Camada_1" data-name="Camada 1"><path class="cls-1" d="M14.61,17.12A8.56,8.56,0,1,0,6.05,8.56,8.57,8.57,0,0,0,14.61,17.12Zm0-14.67A6.11,6.11,0,1,1,8.49,8.56,6.12,6.12,0,0,1,14.61,2.45Z"/><path class="cls-1" d="M20.25,18.14H19.2l-.21,0a10.49,10.49,0,0,1-8.77,0L9,18.14a9,9,0,0,0-9,9v2.62a3.53,3.53,0,0,0,3.52,3.52H25.69a3.53,3.53,0,0,0,3.52-3.52V27.1A9,9,0,0,0,20.25,18.14Zm6.52,11.58a1.09,1.09,0,0,1-1.08,1.08H3.52a1.08,1.08,0,0,1-1.07-1.08V27.1A6.52,6.52,0,0,1,9,20.59h.65a13,13,0,0,0,10,0h.64a6.53,6.53,0,0,1,6.52,6.51Z"/><path class="cls-1" d="M44.07,8.68a2.13,2.13,0,0,0-1.51-1.56,2.16,2.16,0,0,0-2.11.55l-3.56,3.57L35,10.91,34.63,9l3.56-3.56a2.16,2.16,0,0,0-1-3.63A9.41,9.41,0,0,0,25.72,13L22.1,16.65h.14a10,10,0,0,1,3.47.63l3.4-3.4L28.82,13a6.41,6.41,0,0,1,6-8.49L31.42,8l.93,5.57,5.57.93L41.36,11a6.44,6.44,0,0,1-8.5,6L32,16.77,29.2,19.55A9.83,9.83,0,0,1,31,22l1.84-1.84a9.39,9.39,0,0,0,8.76-2.51A9.51,9.51,0,0,0,44.35,11,9.22,9.22,0,0,0,44.07,8.68Z"/></g></g></svg>