<svg xmlns="http://www.w3.org/2000/svg" viewBox="0 0 55.39 33.94"><defs><style>.cls-1{fill:#fff;}</style></defs><title>Alterar Senha</title><g id="Layer_2" data-name="Layer 2"><g id="Camada_1" data-name="Camada 1"><path class="cls-1" d="M36.34,20l-19,.2h-.05a8.69,8.69,0,1,0,0,1.88h.05L29.69,22l0,2.5a1,1,0,0,0,1.9,0l0-2.5,1.85,0,0,4.23a1,1,0,0,0,1,.94,1,1,0,0,0,.94-1l0-4.23h1a1,1,0,0,0,0-1.9ZM8.76,28a6.79,6.79,0,1,1,6.72-6.85A6.79,6.79,0,0,1,8.76,28Z"/><path class="cls-1" d="M52.41,17.2l-13.26-3,1.1-4.94A3.28,3.28,0,0,1,44.1,6.78a3.17,3.17,0,0,1,2,1.42,3.2,3.2,0,0,1,.44,2.45l-.21.92a2.41,2.41,0,0,0,1.83,2.88l1.84.41A2.41,2.41,0,0,0,52.92,13l.2-.92A10,10,0,0,0,45.56.23,10,10,0,0,0,33.7,7.86l-1.1,4.9-.4-.09a3.84,3.84,0,0,0-4.57,2.9l-.89,4,2.06,0L29.59,16a1.82,1.82,0,0,1,1.77-1.43,1.75,1.75,0,0,1,.4.05l2.36.52,1.53-6.86a8,8,0,0,1,9.48-6.1,7.94,7.94,0,0,1,6,9.49l-.2.92a.4.4,0,0,1-.19.25.38.38,0,0,1-.31.06l-1.83-.41a.43.43,0,0,1-.26-.18.42.42,0,0,1-.06-.32l.21-.91a5.24,5.24,0,0,0-4-6.27,5.29,5.29,0,0,0-6.22,4l-1.54,6.89L52,19.15a1.83,1.83,0,0,1,1.38,2.18l-2.06,9.18a1.82,1.82,0,0,1-2.17,1.38l-9.47-2.12-2.24-.5-8.5-1.9a1.83,1.83,0,0,1-1.38-2.18l.6-2.67-2.05,0-.5,2.22a3.83,3.83,0,0,0,2.89,4.56l20.21,4.53a4,4,0,0,0,.84.09,3.84,3.84,0,0,0,3.73-3l2-9.19A3.83,3.83,0,0,0,52.41,17.2Z"/><path class="cls-1" d="M42.13,24.86a2,2,0,1,1-3.9-.87l.52-2.34a2,2,0,0,1,3.9.87Z"/></g></g></svg>