<svg xmlns="http://www.w3.org/2000/svg" viewBox="0 0 36.77 47.93"><defs><style>.cls-1{fill:#b3b3b3;}</style></defs><title>Alunos Desativado</title><g id="Layer_2" data-name="Layer 2"><g id="Camada_1" data-name="Camada 1"><path class="cls-1" d="M13.61,23.25a8.56,8.56,0,1,0,8.56-8.56A8.57,8.57,0,0,0,13.61,23.25Zm8.56-6.11a6.11,6.11,0,1,1-6.12,6.11A6.12,6.12,0,0,1,22.17,17.14Z"/><path class="cls-1" d="M27.81,32.82h-1l-.21,0a10.53,10.53,0,0,1-8.77,0l-1.26,0a9,9,0,0,0-9,9v2.62a3.53,3.53,0,0,0,3.52,3.52H33.25a3.53,3.53,0,0,0,3.52-3.52V41.79A9,9,0,0,0,27.81,32.82Zm0,2.45a6.53,6.53,0,0,1,6.52,6.52v2.62a1.08,1.08,0,0,1-1.08,1.07H11.08A1.07,1.07,0,0,1,10,44.41V41.79a6.53,6.53,0,0,1,6.51-6.52h.65a12.94,12.94,0,0,0,10,0Z"/><path class="cls-1" d="M5.42,15.87a1.9,1.9,0,0,0-.2-2.4c.07-.17.16-.36.24-.52L6,12.82l1.73,4.11,0,.09c1.06,1.84,5,.71,8.13-1.12a16.22,16.22,0,0,0,4-3.13c1.48-1.66,1.37-2.74,1-3.35L18.2,5.78l2.74-2.94a1.7,1.7,0,0,0,.25-2A1.7,1.7,0,0,0,19.32.05l-10,2.29A3.65,3.65,0,0,0,7.46,3.41l-7,7.52a1.7,1.7,0,0,0-.25,2,1.69,1.69,0,0,0,1.86.78h.07a1.93,1.93,0,0,0-.34,1.22,1.9,1.9,0,0,0,.49,1.15l-.56,3.63a1.41,1.41,0,0,0,.36,1.16,1.37,1.37,0,0,0,1,.46h.1l2-.14a1.37,1.37,0,0,0,1.06-.6,1.39,1.39,0,0,0,.2-1.2Zm14.05-5.6c.05.45-1.18,2.3-4.41,4.17s-5.47,2-5.8,1.74L8.12,13.49l4.22-1a4.77,4.77,0,0,0,2.43-1.4L17.72,8Zm-16,9.34.44-2.88.82,2.8Zm0-4.79a.31.31,0,0,1,.14-.24l.12-.08.14.07a.24.24,0,0,1,0,.43l-.14.11L3.65,15A.31.31,0,0,1,3.5,14.82Zm1.17-3.43h0l-3,.69,7-7.51A2,2,0,0,1,9.7,4l10-2.29-7,7.5a1.9,1.9,0,0,1-1,.57Z"/></g></g></svg>