<svg xmlns="http://www.w3.org/2000/svg" viewBox="0 0 53.46 68.78"><defs><style>.cls-1{fill:#03a9f4;}</style></defs><title>Arquivo Upload</title><g id="Layer_2" data-name="Layer 2"><g id="Camada_1" data-name="Camada 1"><path class="cls-1" d="M37.13,55.57,29.67,44l7.46-11.6a.7.7,0,0,0,0-.7.68.68,0,0,0-.59-.36H32.39a.67.67,0,0,0-.61.38c-3.65,6.77-4.38,8.17-4.38,8.19l-.71,1.33-.64-1.36c-1.12-2.35-1.36-2.77-1.93-3.77-.45-.78-1.07-1.87-2.43-4.41a.71.71,0,0,0-.62-.36H16.92a.66.66,0,0,0-.61.38.61.61,0,0,0,0,.68L23.81,44,16.34,55.58a.66.66,0,0,0,0,.71.7.7,0,0,0,.61.36h4.17a.69.69,0,0,0,.6-.36l2.16-4a44.78,44.78,0,0,0,2.2-4.23l.61-1.44.74,1.39s2,3.89,4.36,8.22a.68.68,0,0,0,.61.36h4.17a.69.69,0,0,0,.62-.36A.65.65,0,0,0,37.13,55.57Zm0,0L29.67,44l7.46-11.6a.7.7,0,0,0,0-.7.68.68,0,0,0-.59-.36H32.39a.67.67,0,0,0-.61.38c-3.65,6.77-4.38,8.17-4.38,8.19l-.71,1.33-.64-1.36c-1.12-2.35-1.36-2.77-1.93-3.77-.45-.78-1.07-1.87-2.43-4.41a.71.71,0,0,0-.62-.36H16.92a.66.66,0,0,0-.61.38.61.61,0,0,0,0,.68L23.81,44,16.34,55.58a.66.66,0,0,0,0,.71.7.7,0,0,0,.61.36h4.17a.69.69,0,0,0,.6-.36l2.16-4a44.78,44.78,0,0,0,2.2-4.23l.61-1.44.74,1.39s2,3.89,4.36,8.22a.68.68,0,0,0,.61.36h4.17a.69.69,0,0,0,.62-.36A.65.65,0,0,0,37.13,55.57Zm0,0L29.67,44l7.46-11.6a.7.7,0,0,0,0-.7.68.68,0,0,0-.59-.36H32.39a.67.67,0,0,0-.61.38c-3.65,6.77-4.38,8.17-4.38,8.19l-.71,1.33-.64-1.36c-1.12-2.35-1.36-2.77-1.93-3.77-.45-.78-1.07-1.87-2.43-4.41a.71.71,0,0,0-.62-.36H16.92a.66.66,0,0,0-.61.38.61.61,0,0,0,0,.68L23.81,44,16.34,55.58a.66.66,0,0,0,0,.71.7.7,0,0,0,.61.36h4.17a.69.69,0,0,0,.6-.36l2.16-4a44.78,44.78,0,0,0,2.2-4.23l.61-1.44.74,1.39s2,3.89,4.36,8.22a.68.68,0,0,0,.61.36h4.17a.69.69,0,0,0,.62-.36A.65.65,0,0,0,37.13,55.57Zm0,0L29.67,44l7.46-11.6a.7.7,0,0,0,0-.7.68.68,0,0,0-.59-.36H32.39a.67.67,0,0,0-.61.38c-3.65,6.77-4.38,8.17-4.38,8.19l-.71,1.33-.64-1.36c-1.12-2.35-1.36-2.77-1.93-3.77-.45-.78-1.07-1.87-2.43-4.41a.71.71,0,0,0-.62-.36H16.92a.66.66,0,0,0-.61.38.61.61,0,0,0,0,.68L23.81,44,16.34,55.58a.66.66,0,0,0,0,.71.7.7,0,0,0,.61.36h4.17a.69.69,0,0,0,.6-.36l2.16-4a44.78,44.78,0,0,0,2.2-4.23l.61-1.44.74,1.39s2,3.89,4.36,8.22a.68.68,0,0,0,.61.36h4.17a.69.69,0,0,0,.62-.36A.65.65,0,0,0,37.13,55.57Zm0,0L29.67,44l7.46-11.6a.7.7,0,0,0,0-.7.68.68,0,0,0-.59-.36H32.39a.67.67,0,0,0-.61.38c-3.65,6.77-4.38,8.17-4.38,8.19l-.71,1.33-.64-1.36c-1.12-2.35-1.36-2.77-1.93-3.77-.45-.78-1.07-1.87-2.43-4.41a.71.71,0,0,0-.62-.36H16.92a.66.66,0,0,0-.61.38.61.61,0,0,0,0,.68L23.81,44,16.34,55.58a.66.66,0,0,0,0,.71.7.7,0,0,0,.61.36h4.17a.69.69,0,0,0,.6-.36l2.16-4a44.78,44.78,0,0,0,2.2-4.23l.61-1.44.74,1.39s2,3.89,4.36,8.22a.68.68,0,0,0,.61.36h4.17a.69.69,0,0,0,.62-.36A.65.65,0,0,0,37.13,55.57Zm0,0L29.67,44l7.46-11.6a.7.7,0,0,0,0-.7.68.68,0,0,0-.59-.36H32.39a.67.67,0,0,0-.61.38c-3.65,6.77-4.38,8.17-4.38,8.19l-.71,1.33-.64-1.36c-1.12-2.35-1.36-2.77-1.93-3.77-.45-.78-1.07-1.87-2.43-4.41a.71.71,0,0,0-.62-.36H16.92a.66.66,0,0,0-.61.38.61.61,0,0,0,0,.68L23.81,44,16.34,55.58a.66.66,0,0,0,0,.71.7.7,0,0,0,.61.36h4.17a.69.69,0,0,0,.6-.36l2.16-4a44.78,44.78,0,0,0,2.2-4.23l.61-1.44.74,1.39s2,3.89,4.36,8.22a.68.68,0,0,0,.61.36h4.17a.69.69,0,0,0,.62-.36A.65.65,0,0,0,37.13,55.57ZM51.52,13.66,39.8,1.93A6.59,6.59,0,0,0,35.12,0H6.62A6.62,6.62,0,0,0,0,6.61V62.18a6.62,6.62,0,0,0,6.62,6.6H46.84a6.62,6.62,0,0,0,6.62-6.6V18.41A6.67,6.67,0,0,0,51.52,13.66ZM50.47,62.18a3.63,3.63,0,0,1-3.63,3.61H6.62A3.63,3.63,0,0,1,3,62.18V6.61A3.63,3.63,0,0,1,6.62,3H31.31V20a2.13,2.13,0,0,0,2.12,2.12h17Zm0-42.38H33.64V3h1.48a3.58,3.58,0,0,1,2.57,1.06L49.41,15.78a3.66,3.66,0,0,1,1.06,2.56ZM31.78,31.69c-3.65,6.77-4.38,8.17-4.38,8.19l-.71,1.33-.64-1.36c-1.12-2.35-1.36-2.77-1.93-3.77-.45-.78-1.07-1.87-2.43-4.41a.71.71,0,0,0-.62-.36H16.92a.66.66,0,0,0-.61.38.61.61,0,0,0,0,.68L23.81,44,16.34,55.58a.66.66,0,0,0,0,.71.7.7,0,0,0,.61.36h4.17a.69.69,0,0,0,.6-.36l2.16-4a44.78,44.78,0,0,0,2.2-4.23l.61-1.44.74,1.39s2,3.89,4.36,8.22a.68.68,0,0,0,.61.36h4.17a.69.69,0,0,0,.62-.36.65.65,0,0,0,0-.7L29.67,44l7.46-11.6a.7.7,0,0,0,0-.7.68.68,0,0,0-.59-.36H32.39A.67.67,0,0,0,31.78,31.69Zm5.35,23.88L29.67,44l7.46-11.6a.7.7,0,0,0,0-.7.68.68,0,0,0-.59-.36H32.39a.67.67,0,0,0-.61.38c-3.65,6.77-4.38,8.17-4.38,8.19l-.71,1.33-.64-1.36c-1.12-2.35-1.36-2.77-1.93-3.77-.45-.78-1.07-1.87-2.43-4.41a.71.71,0,0,0-.62-.36H16.92a.66.66,0,0,0-.61.38.61.61,0,0,0,0,.68L23.81,44,16.34,55.58a.66.66,0,0,0,0,.71.7.7,0,0,0,.61.36h4.17a.69.69,0,0,0,.6-.36l2.16-4a44.78,44.78,0,0,0,2.2-4.23l.61-1.44.74,1.39s2,3.89,4.36,8.22a.68.68,0,0,0,.61.36h4.17a.69.69,0,0,0,.62-.36A.65.65,0,0,0,37.13,55.57Zm0,0L29.67,44l7.46-11.6a.7.7,0,0,0,0-.7.68.68,0,0,0-.59-.36H32.39a.67.67,0,0,0-.61.38c-3.65,6.77-4.38,8.17-4.38,8.19l-.71,1.33-.64-1.36c-1.12-2.35-1.36-2.77-1.93-3.77-.45-.78-1.07-1.87-2.43-4.41a.71.71,0,0,0-.62-.36H16.92a.66.66,0,0,0-.61.38.61.61,0,0,0,0,.68L23.81,44,16.34,55.58a.66.66,0,0,0,0,.71.7.7,0,0,0,.61.36h4.17a.69.69,0,0,0,.6-.36l2.16-4a44.78,44.78,0,0,0,2.2-4.23l.61-1.44.74,1.39s2,3.89,4.36,8.22a.68.68,0,0,0,.61.36h4.17a.69.69,0,0,0,.62-.36A.65.65,0,0,0,37.13,55.57Z"/></g></g></svg>