<svg xmlns="http://www.w3.org/2000/svg" viewBox="0 0 33.11 33.19"><defs><style>.cls-1{fill:#fff;}</style></defs><title>Atenção Especial 1</title><g id="Layer_2" data-name="Layer 2"><g id="Camada_1" data-name="Camada 1"><path class="cls-1" d="M6.52,33.19c-1.25-.67-1.4-2.45-2.2-3.54-1-2-2-4-3-6C.73,22.14-1.3,20,1.25,19.27c1.17-.58,2.4-1.33,3.75-.78.59.36,2-1.64,2.7-1.95a7,7,0,0,1,8.81.74C19,18.67,23.78,16,25.14,19.59c1.29-.85,2.28-2.77,3.8-3.64a3,3,0,0,1,4,3.49c-.7,1.6-2.09,2.91-3.06,4.39-1.64,2.11-3.06,4.71-5.91,5.29-3.45.47-7.11.08-10.63.2-.7.19-2.25-.43-2.46.33C10.71,31.72,8.3,32.76,6.52,33.19ZM29,21.82c.77-.92,3.94-4.51.79-4.05-1.72,1.53-3.12,3.32-4.75,5-1.56,1.14-6.4.93-8.29.42-.91-1.27.76-1.89,1.9-1.65,1.32,0,6.68.54,4.11-1.87-2.12-.26-4.44.26-6.47-.25-3.18-2.57-6-3.15-9.06.19-1.24.46.46,2.21.72,3.09.79,1.5,1.48,3.24,2.4,4.68,4.76-.38,10,.87,14.49-.66C26.62,25.59,27.62,23.44,29,21.82ZM3.68,20.3c-1.19.47-1.82.5-1,1.79.87,1.7,1.69,3.45,2.59,5.15a35.86,35.86,0,0,0,1.87,3.62c.69-.31,1.92-.64,1.74-1.59C8.16,28,4.88,19.45,3.68,20.3Z"/><path class="cls-1" d="M14.41,13.76c-.86-.09-2,.27-2.58-.38a5.93,5.93,0,0,1,2.76-6.66c-2.84-3.31.95-8.49,5-6.12a4.06,4.06,0,0,1,.79,6,6.2,6.2,0,0,1,2.86,6.64C21.14,14.45,17,13.43,14.41,13.76Zm2-11.42C14,4,17.18,7.44,19,5.2,20.5,3.56,18.15.94,16.4,2.34Zm-2.81,9.34c2.32.35,5.29,0,7.82.11C21.38,6.69,13.8,6.67,13.59,11.68Z"/></g></g></svg>