<svg xmlns="http://www.w3.org/2000/svg" viewBox="0 0 19.16 23.62"><defs><style>.cls-1{fill:none;stroke:#03a9f4;stroke-miterlimit:10;stroke-width:2px;}</style></defs><title>Calendario</title><g id="Layer_2" data-name="Layer 2"><g id="Camada_1" data-name="Camada 1"><path class="cls-1" d="M1,20.78a1.84,1.84,0,0,0,1.84,1.84H16.33a1.84,1.84,0,0,0,1.83-1.84V10.36H1Zm3.45-6.36a.61.61,0,0,1,.62-.61H8.74a.61.61,0,0,1,.62.61V18.1a.61.61,0,0,1-.62.61H5.07a.61.61,0,0,1-.62-.61Zm11.88-11H14.49V1.61A.62.62,0,0,0,13.87,1H12.65a.62.62,0,0,0-.62.61V3.45H7.13V1.61A.62.62,0,0,0,6.52,1H5.29a.61.61,0,0,0-.61.61V3.45H2.84A1.84,1.84,0,0,0,1,5.29V7.13H18.16V5.29A1.84,1.84,0,0,0,16.33,3.45Z"/></g></g></svg>