<svg xmlns="http://www.w3.org/2000/svg" width="224.2" height="206.828" viewBox="0 0 224.2 206.828"><defs><style>.a{fill:#02395e;}.b,.f{fill:#fff;}.b{stroke:#01579b;}.c{opacity:0.1;}.d{fill:#013a68;}.e{fill:#03a9f4;}.g{fill:#57b894;}</style></defs><g transform="translate(0 -0.002)"><path class="a" d="M201.89,206.79H22.22A22.21,22.21,0,0,1,0,184.58H0V102.26a8.77,8.77,0,0,1,2.75-6.39L98,5.62a20.49,20.49,0,0,1,28.19,0l90.78,86.05a23,23,0,0,1,7.18,16.7v76.21a22.21,22.21,0,0,1-22.22,22.21Z"/><rect class="b" width="165.28" height="165.28" rx="12.22" transform="translate(29.18 32.88)"/><path class="c" d="M194.46,107.32v90.83H29.18V107.32l82.64,39.94Z"/><path class="d" d="M112.15,152.66,6.26,101.49a4.29,4.29,0,0,0-5.74,2,4.37,4.37,0,0,0-.43,1.87v88.06a13.41,13.41,0,0,0,13.42,13.41H210.78a13.41,13.41,0,0,0,13.42-13.41h0V106.86a5.24,5.24,0,0,0-7.52-4.72Z"/><rect class="e" width="46.22" height="6.54" transform="translate(43.42 48.05)"/><rect class="e" width="137.26" height="3.74" transform="translate(39.69 71.86)"/><rect class="e" width="137.26" height="3.74" transform="translate(39.69 84.47)"/><rect class="e" width="137.26" height="3.74" transform="translate(39.69 97.07)"/><ellipse class="f" cx="19.14" cy="19.18" rx="19.14" ry="19.18" transform="translate(16.81 16.3)"/><path class="g" d="M36,13A22.88,22.88,0,1,0,58.83,35.91,22.88,22.88,0,0,0,36,13ZM31.3,48.08,19.53,36.38l3.29-3.28,8.44,8.44L49.09,23.71,52.38,27,31.25,48.11Z"/></g></svg>