<svg xmlns="http://www.w3.org/2000/svg" viewBox="0 0 31.03 52.98"><defs><style>.cls-1{fill:#b3b3b3;}</style></defs><title>Certificado Desativado</title><g id="Layer_2" data-name="Layer 2"><g id="Camada_1" data-name="Camada 1"><path class="cls-1" d="M29.91,7.93,23.1,1.12A3.82,3.82,0,0,0,20.39,0H3.84A3.84,3.84,0,0,0,0,3.84V25a1.33,1.33,0,0,1,.21-.47,2.64,2.64,0,0,1,1.52-.81V3.84a2.11,2.11,0,0,1,2.11-2.1H18.17v9.89a1.24,1.24,0,0,0,1.24,1.23H29.3V36.1a2.11,2.11,0,0,1-2.11,2.1h-9.5a17.41,17.41,0,0,0-2.58.93,3.29,3.29,0,0,0-.72.8h12.8A3.83,3.83,0,0,0,31,36.1V10.69A3.87,3.87,0,0,0,29.91,7.93ZM29.3,11.5H19.53V1.74h.86a2.09,2.09,0,0,1,1.49.61l6.8,6.81a2.14,2.14,0,0,1,.62,1.49Z"/><path class="cls-1" d="M6,8h8.63A1.37,1.37,0,0,0,16,6.62a1.35,1.35,0,0,0-.4-1,1.33,1.33,0,0,0-1-.4H6A1.37,1.37,0,1,0,6,8Z"/><path class="cls-1" d="M6,13.73h8.63a1.37,1.37,0,0,0,0-2.73H6a1.37,1.37,0,1,0,0,2.73Z"/><path class="cls-1" d="M15.09,37.41a2.78,2.78,0,0,0,1.67-.87,2.77,2.77,0,0,0,.31-1.85,3.13,3.13,0,0,1,.05-1,3,3,0,0,1,.56-.83,2.84,2.84,0,0,0,.84-1.72,2.84,2.84,0,0,0-.84-1.72,3,3,0,0,1-.56-.83,3.13,3.13,0,0,1-.05-1,2.76,2.76,0,0,0-.31-1.85,2.78,2.78,0,0,0-1.67-.87,3.29,3.29,0,0,1-1-.36,3.05,3.05,0,0,1-.63-.8,2.79,2.79,0,0,0-1.36-1.33,2.92,2.92,0,0,0-1.83.27,3.19,3.19,0,0,1-1,.28,3.21,3.21,0,0,1-1-.28,2.92,2.92,0,0,0-1.83-.27,2.79,2.79,0,0,0-1.36,1.33,3.05,3.05,0,0,1-.63.8,3.29,3.29,0,0,1-1,.36,2.78,2.78,0,0,0-1.67.87,2.77,2.77,0,0,0-.31,1.85,3.13,3.13,0,0,1-.05,1,3.12,3.12,0,0,1-.55.83A2.8,2.8,0,0,0,0,31.1a2.8,2.8,0,0,0,.85,1.72,3.12,3.12,0,0,1,.55.83,3.11,3.11,0,0,1,.05,1,2.77,2.77,0,0,0,.31,1.85,2.78,2.78,0,0,0,1.67.87,4.64,4.64,0,0,1,.69.23V53L9,48.85,13.91,53V38a1.49,1.49,0,0,1,.21-.22A3.29,3.29,0,0,1,15.09,37.41ZM14.45,27.2v0h0v0ZM4.1,35v0h0Zm10.17-2.27a5.28,5.28,0,0,0-.21,1.86,5.15,5.15,0,0,0-1.7.77,4.82,4.82,0,0,0-1,1H7.17a4.58,4.58,0,0,0-1-1,5,5,0,0,0-1.7-.77,5.31,5.31,0,0,0-.21-1.86,5.09,5.09,0,0,0-.94-1.62,5.09,5.09,0,0,0,.94-1.62,5.28,5.28,0,0,0,.21-1.86,5.15,5.15,0,0,0,1.7-.77,5,5,0,0,0,1.25-1.38,5.06,5.06,0,0,0,1.83.38,5.07,5.07,0,0,0,1.84-.38,4.94,4.94,0,0,0,1.25,1.38,5.24,5.24,0,0,0,1.7.77,5.31,5.31,0,0,0,.21,1.86,5.12,5.12,0,0,0,.94,1.62A5.09,5.09,0,0,0,14.27,32.72ZM9,46.23,6.15,48.66v-8.9a2.29,2.29,0,0,0,.27.14,2.92,2.92,0,0,0,1.83-.27,3.21,3.21,0,0,1,1-.28,3.19,3.19,0,0,1,1,.28,3.79,3.79,0,0,0,1.34.34,2.19,2.19,0,0,0,.27,0v8.73Z"/></g></g></svg>