<svg xmlns="http://www.w3.org/2000/svg" viewBox="0 0 22.03 36.77"><defs><style>.cls-1{fill:#ccc;}</style></defs><title>Certificado indisponivel</title><g id="Layer_2" data-name="Layer 2"><g id="Camada_1" data-name="Camada 1"><path class="cls-1" d="M4.49,5.83h5.93a.94.94,0,0,0,0-1.88H4.49a.94.94,0,1,0,0,1.88Z"/><path class="cls-1" d="M10.42,7.91H4.49a.94.94,0,0,0,0,1.88h5.93a.94.94,0,0,0,0-1.88Z"/><path class="cls-1" d="M21.16,5.55,16.47.87A3,3,0,0,0,14.37,0H3A3,3,0,0,0,0,3v17.5L.68,17.6a.61.61,0,0,1,.09-.2A1.59,1.59,0,0,1,1.62,17l.26-.07V3A1.1,1.1,0,0,1,3,1.88H12.5V8.34a1.19,1.19,0,0,0,1.19,1.19h6.46V25.17A1.11,1.11,0,0,1,19,26.27H12.51l-.15,0a3.21,3.21,0,0,1-.72.23,3.49,3.49,0,0,0-1.11.44,2.81,2.81,0,0,0-.57.63l-.39.55H19a3,3,0,0,0,3-3V7.7A3,3,0,0,0,21.16,5.55Zm-1,2.12v.24h-6v-6h.25a1.14,1.14,0,0,1,.78.32l4.67,4.68A1.15,1.15,0,0,1,20.15,7.67Z"/><path class="cls-1" d="M12.5,20.55a2,2,0,0,1-.38-.57,1.86,1.86,0,0,1,0-.72A1.94,1.94,0,0,0,11.87,18a2,2,0,0,0-1.15-.61,1.94,1.94,0,0,1-.66-.24,2.15,2.15,0,0,1-.43-.55,2,2,0,0,0-.94-.91,2.1,2.1,0,0,0-1.26.18,2.15,2.15,0,0,1-.7.2,2.07,2.07,0,0,1-.71-.2,2.11,2.11,0,0,0-1.26-.18,1.89,1.89,0,0,0-.94.91,2.15,2.15,0,0,1-.43.55,2,2,0,0,1-.67.24A2,2,0,0,0,1.58,18a1.88,1.88,0,0,0-.22,1.27,2.08,2.08,0,0,1,0,.72,2.55,2.55,0,0,1-.38.57,1.91,1.91,0,0,0-.59,1.18A1.89,1.89,0,0,0,1,22.91a2.34,2.34,0,0,1,.38.57,2.07,2.07,0,0,1,0,.72,1.84,1.84,0,0,0,.22,1.26,1.92,1.92,0,0,0,1.14.61,3.44,3.44,0,0,1,.48.15V36.77l3.36-2.84,3.36,2.84V26.46a.47.47,0,0,1,.14-.14,1.94,1.94,0,0,1,.66-.25,1.94,1.94,0,0,0,1.15-.61,1.9,1.9,0,0,0,.22-1.26,1.85,1.85,0,0,1,0-.72,1.88,1.88,0,0,1,.38-.57,1.93,1.93,0,0,0,.58-1.18A2,2,0,0,0,12.5,20.55ZM10,24.12a3.66,3.66,0,0,0-1.18.53,3.07,3.07,0,0,0-.67.68c-.07.09-.12.18-.18.27a3.5,3.5,0,0,0-1.26-.27,3.51,3.51,0,0,0-1.27.27,2.22,2.22,0,0,0-.19-.27,2.86,2.86,0,0,0-.67-.68,3.53,3.53,0,0,0-1.17-.53,3.32,3.32,0,0,0-.14-1.28,3.5,3.5,0,0,0-.65-1.11,3.41,3.41,0,0,0,.65-1.12,3.26,3.26,0,0,0,.14-1.27,3.66,3.66,0,0,0,1.18-.53,3.66,3.66,0,0,0,.85-.95,3.75,3.75,0,0,0,1.27.26A3.79,3.79,0,0,0,8,17.86a3.49,3.49,0,0,0,.85.95,3.66,3.66,0,0,0,1.18.53,3.48,3.48,0,0,0,.14,1.27,3.71,3.71,0,0,0,.64,1.12,3.65,3.65,0,0,0-.64,1.11A3.53,3.53,0,0,0,10,24.12Zm.27-5.05h0v0ZM8.07,17.49h0l0,0Zm-4.91,6.9h0v0Zm5.38,9.42-2-1.68-2,1.68V27.69a1,1,0,0,0,.18.09A2.11,2.11,0,0,0,6,27.6a2.07,2.07,0,0,1,.71-.2,2.15,2.15,0,0,1,.7.2,2.76,2.76,0,0,0,.93.23h.18Z"/></g></g></svg>