<svg xmlns="http://www.w3.org/2000/svg" viewBox="0 0 23.02 38.43"><defs><style>.cls-1{fill:#fff;}</style></defs><title>certificado disponivel</title><g id="Layer_2" data-name="Layer 2"><g id="Camada_1" data-name="Camada 1"><path class="cls-1" d="M4.69,6.1h6.2a1,1,0,0,0,0-2H4.69a1,1,0,1,0,0,2Z"/><path class="cls-1" d="M10.89,8.26H4.69a1,1,0,1,0,0,2h6.2a1,1,0,0,0,0-2Z"/><path class="cls-1" d="M22.11,5.8,17.21.91A3.05,3.05,0,0,0,15,0H3.12A3.12,3.12,0,0,0,0,3.12V21.4l.71-3a.53.53,0,0,1,.09-.2,1.57,1.57,0,0,1,.9-.45L2,17.67V3.12A1.15,1.15,0,0,1,3.12,2h9.94V8.72A1.25,1.25,0,0,0,14.31,10h6.75V26.3a1.15,1.15,0,0,1-1.16,1.15H13.07l-.15,0a4.41,4.41,0,0,1-.75.24,3.48,3.48,0,0,0-1.16.46,2.5,2.5,0,0,0-.6.66l-.4.57H19.9A3.12,3.12,0,0,0,23,26.3V8A3.14,3.14,0,0,0,22.11,5.8ZM21.06,8v.25H14.75V2H15a1.17,1.17,0,0,1,.82.33l4.88,4.89A1.2,1.2,0,0,1,21.06,8Z"/><path class="cls-1" d="M13.07,21.47a2.11,2.11,0,0,1-.41-.59,2.31,2.31,0,0,1,0-.76,2,2,0,0,0-.23-1.32,2,2,0,0,0-1.2-.63,2.12,2.12,0,0,1-.69-.26,2.57,2.57,0,0,1-.45-.57,2,2,0,0,0-1-.95,2,2,0,0,0-1.31.19,2.35,2.35,0,0,1-.74.2,2.28,2.28,0,0,1-.74-.2A2.07,2.07,0,0,0,5,16.39a2,2,0,0,0-1,.95,2.58,2.58,0,0,1-.46.57,2.12,2.12,0,0,1-.69.26,2,2,0,0,0-1.2.63,2,2,0,0,0-.23,1.32,2.31,2.31,0,0,1,0,.76,2.28,2.28,0,0,1-.4.59,2,2,0,0,0-.61,1.24A2,2,0,0,0,1,24a2.12,2.12,0,0,1,.4.59,2.25,2.25,0,0,1,0,.75,2,2,0,0,0,.23,1.32,2,2,0,0,0,1.2.63c.18.06.36.1.5.16v11l3.51-3,3.5,3V27.65l.15-.15a2.37,2.37,0,0,1,.69-.26,2,2,0,0,0,1.2-.63,2,2,0,0,0,.23-1.32,2.25,2.25,0,0,1,0-.75,2,2,0,0,1,.41-.59,2.08,2.08,0,0,0,.6-1.24A2.05,2.05,0,0,0,13.07,21.47Zm-2.6,3.74a3.74,3.74,0,0,0-1.23.55,3.16,3.16,0,0,0-.7.72l-.19.27A3.81,3.81,0,0,0,7,26.48a3.81,3.81,0,0,0-1.32.27l-.2-.27a3,3,0,0,0-.7-.72,3.7,3.7,0,0,0-1.22-.55,3.88,3.88,0,0,0-.15-1.34,3.7,3.7,0,0,0-.68-1.16,3.61,3.61,0,0,0,.68-1.17,3.82,3.82,0,0,0,.15-1.33,3.7,3.7,0,0,0,1.22-.55,3.89,3.89,0,0,0,.9-1A3.74,3.74,0,0,0,7,18.94a3.85,3.85,0,0,0,1.32-.28,3.66,3.66,0,0,0,.89,1,3.74,3.74,0,0,0,1.23.55,3.82,3.82,0,0,0,.14,1.33,3.72,3.72,0,0,0,.68,1.17,3.66,3.66,0,0,0-.68,1.16A3.85,3.85,0,0,0,10.47,25.21Zm.28-5.28h0v0ZM8.44,18.28h0v0Zm-5.13,7.2h0v0Zm5.62,9.85L6.86,33.58,4.79,35.33V28.94A.61.61,0,0,0,5,29a2.07,2.07,0,0,0,1.32-.19A2.32,2.32,0,0,1,7,28.63a2.39,2.39,0,0,1,.74.21,2.71,2.71,0,0,0,1,.24h.2Z"/></g></g></svg>