<svg xmlns="http://www.w3.org/2000/svg" viewBox="0 0 49.25 29.67"><defs><style>.cls-1{fill:#fff;}</style></defs><g id="Camada_2" data-name="Camada 2"><g id="Camada_1-2" data-name="Camada 1"><path class="cls-1" d="M41.65,19.46a5.36,5.36,0,1,0-5.36-5.35A5.36,5.36,0,0,0,41.65,19.46Zm-3.28-5.35a3.28,3.28,0,1,1,3.28,3.27A3.28,3.28,0,0,1,38.37,14.11Z"/><path class="cls-1" d="M44.59,20.24H44l-.06,0a4.55,4.55,0,0,1-4.55,0l0,0H38.7c-2.57,0-4.66,2.51-4.66,5.61v1.66a2,2,0,0,0,1.83,2.16H47.43a2,2,0,0,0,1.82-2.16V25.85C49.25,22.75,47.16,20.24,44.59,20.24Zm2.86,5.61v1.66s0,.08,0,.08H35.87a.12.12,0,0,1,0-.08V25.85c0-2,1.29-3.54,2.86-3.54h.23a6.1,6.1,0,0,0,5.44,0h.22C46.17,22.31,47.45,23.9,47.45,25.85Z"/><path class="cls-1" d="M24.63,19.46a5.36,5.36,0,1,0-5.36-5.35A5.36,5.36,0,0,0,24.63,19.46Zm-3.28-5.35a3.28,3.28,0,1,1,3.28,3.27A3.28,3.28,0,0,1,21.35,14.11Z"/><path class="cls-1" d="M27.57,20.24H27l-.06,0a4.55,4.55,0,0,1-4.55,0l-.05,0h-.62c-2.57,0-4.66,2.51-4.66,5.61v1.66a2,2,0,0,0,1.83,2.16H30.41a2,2,0,0,0,1.82-2.16V25.85C32.23,22.75,30.14,20.24,27.57,20.24Zm-5.89,2.07h.23a6.1,6.1,0,0,0,5.44,0h.22c1.58,0,2.86,1.59,2.86,3.54v1.66s0,.08,0,.08H18.85s0,0,0-.08V25.85C18.82,23.9,20.1,22.31,21.68,22.31Z"/><path class="cls-1" d="M7.6,19.46a5.36,5.36,0,1,0-5.35-5.35A5.36,5.36,0,0,0,7.6,19.46ZM4.33,14.11A3.28,3.28,0,1,1,7.6,17.38,3.28,3.28,0,0,1,4.33,14.11Z"/><path class="cls-1" d="M10.55,20.24H9.93l0,0a4.55,4.55,0,0,1-4.55,0l0,0H4.66C2.09,20.24,0,22.75,0,25.85v1.66a2,2,0,0,0,1.83,2.16H13.38a2,2,0,0,0,1.83-2.16V25.85C15.21,22.75,13.12,20.24,10.55,20.24Zm2.86,5.61v1.66s0,.08,0,.08H1.83s0,0,0-.08V25.85c0-2,1.28-3.54,2.86-3.54h.22a6.12,6.12,0,0,0,5.45,0h.22C12.13,22.31,13.41,23.9,13.41,25.85Z"/><path class="cls-1" d="M42.54,0H6.72A1.83,1.83,0,0,0,4.88,1.83V7.69l.17-.07a6.59,6.59,0,0,1,1.68-.43h.11V2H42.41V7.18h.11a6.49,6.49,0,0,1,1.68.43l.17.07V1.83A1.83,1.83,0,0,0,42.54,0Z"/></g></g></svg>