<svg xmlns="http://www.w3.org/2000/svg" viewBox="0 0 39.24 31"><defs><style>.cls-1{fill:#fff;}</style></defs><title>Cursos Ativo</title><g id="Layer_2" data-name="Layer 2"><g id="Camada_1" data-name="Camada 1"><path class="cls-1" d="M37.53,0H1.71A1.72,1.72,0,0,0,0,1.71V25.28A1.71,1.71,0,0,0,1.71,27H14.92a4.72,4.72,0,0,1,.37-1.71H13.67v-.5a2,2,0,0,0-2-2H8.13a2,2,0,0,0-2,2v.5H1.71V1.71H37.53V24.5a5,5,0,0,1,.75,2.31,1.7,1.7,0,0,0,1-1.53V1.71A1.72,1.72,0,0,0,37.53,0ZM8.13,23.78h3.54a1,1,0,0,1,.95.68H7.19A1,1,0,0,1,8.13,23.78Z"/><path class="cls-1" d="M32.13,14.4a5.53,5.53,0,1,0-5.53,5.54A5.53,5.53,0,0,0,32.13,14.4Zm-9.35,0a3.82,3.82,0,1,1,3.82,3.83A3.83,3.83,0,0,1,22.78,14.4Z"/><path class="cls-1" d="M30.47,21.32h-.72a7.54,7.54,0,0,1-6.3,0h-.72a5.81,5.81,0,0,0-5.81,5.81v1.8A2.07,2.07,0,0,0,19,31H34.21a2.07,2.07,0,0,0,2.07-2.07v-1.8A5.81,5.81,0,0,0,30.47,21.32Zm4.1,7.61a.36.36,0,0,1-.36.36H19a.36.36,0,0,1-.36-.36v-1.8a4.11,4.11,0,0,1,4.1-4.1h.37a9.25,9.25,0,0,0,7,0h.36a4.11,4.11,0,0,1,4.1,4.1Z"/></g></g></svg>