<svg xmlns="http://www.w3.org/2000/svg" viewBox="0 0 40.93 40.93"><defs><style>.cls-1{fill:#fff;}</style></defs><title>Dashboard Ativo</title><g id="Layer_2" data-name="Layer 2"><g id="Camada_1" data-name="Camada 1"><path class="cls-1" d="M14.36,0H4.77A4.78,4.78,0,0,0,0,4.78v9.58a4.78,4.78,0,0,0,4.77,4.77h9.59a4.78,4.78,0,0,0,4.77-4.77V4.78A4.78,4.78,0,0,0,14.36,0Zm0,16.85H4.77a2.5,2.5,0,0,1-2.49-2.49V4.78a2.5,2.5,0,0,1,2.49-2.5h9.59a2.5,2.5,0,0,1,2.49,2.5v9.58A2.5,2.5,0,0,1,14.36,16.85Z"/><path class="cls-1" d="M36.16,0H26.58A4.78,4.78,0,0,0,21.8,4.78V36.16a4.78,4.78,0,0,0,4.78,4.77h9.58a4.78,4.78,0,0,0,4.77-4.77V4.78A4.78,4.78,0,0,0,36.16,0Zm0,38.65H26.58a2.5,2.5,0,0,1-2.5-2.49V4.78a2.5,2.5,0,0,1,2.5-2.5h9.58a2.5,2.5,0,0,1,2.49,2.5V36.16A2.5,2.5,0,0,1,36.16,38.65Z"/><path class="cls-1" d="M14.36,21.8H4.77A4.78,4.78,0,0,0,0,26.58v9.58a4.78,4.78,0,0,0,4.77,4.77h9.59a4.78,4.78,0,0,0,4.77-4.77V26.58A4.78,4.78,0,0,0,14.36,21.8Zm0,16.85H4.77a2.5,2.5,0,0,1-2.49-2.49V26.58a2.5,2.5,0,0,1,2.49-2.5h9.59a2.5,2.5,0,0,1,2.49,2.5v9.58A2.5,2.5,0,0,1,14.36,38.65Z"/></g></g></svg>