<svg xmlns="http://www.w3.org/2000/svg" viewBox="0 0 22.75 28.09"><defs><style>.cls-1{fill:#f44336;}</style></defs><title>Deletar</title><g id="Layer_2" data-name="Layer 2"><g id="Camada_1" data-name="Camada 1"><path class="cls-1" d="M21.93,4.12H15.61V1a1,1,0,0,0-1-1H8.14a1,1,0,0,0-1,1V4.12H.81A.82.82,0,0,0,0,4.94v.81a.81.81,0,0,0,.81.81h.81V25.65a2.44,2.44,0,0,0,2.44,2.44H18.68a2.44,2.44,0,0,0,2.44-2.44V6.56h.81a.82.82,0,0,0,.82-.81V4.94A.82.82,0,0,0,21.93,4.12ZM9.14,2h4.47V4.12H9.14Zm9.54,23.65H4.06V6.56H18.68Z"/><path class="cls-1" d="M8.28,23.54A1.25,1.25,0,0,1,7,22.29V9.41a1.25,1.25,0,1,1,2.5,0V22.29A1.25,1.25,0,0,1,8.28,23.54Z"/><path class="cls-1" d="M14.55,23.54a1.25,1.25,0,0,1-1.25-1.25V9.41a1.25,1.25,0,0,1,2.5,0V22.29A1.25,1.25,0,0,1,14.55,23.54Z"/></g></g></svg>