<svg xmlns="http://www.w3.org/2000/svg" viewBox="0 0 35.77 46.02"><defs><style>.cls-1{fill:#fff;}.cls-2{fill:none;stroke:#fff;stroke-miterlimit:10;stroke-width:2px;}</style></defs><title>Download</title><g id="Layer_2" data-name="Layer 2"><g id="Camada_1" data-name="Camada 1"><path class="cls-1" d="M34.47,9.14,26.63,1.29A4.41,4.41,0,0,0,23.5,0H4.43A4.43,4.43,0,0,0,0,4.42V41.6A4.43,4.43,0,0,0,4.43,46H31.34a4.43,4.43,0,0,0,4.43-4.42V12.32A4.47,4.47,0,0,0,34.47,9.14Zm-.7,32.46A2.43,2.43,0,0,1,31.34,44H4.43A2.43,2.43,0,0,1,2,41.6V4.42A2.43,2.43,0,0,1,4.43,2H21V13.4a1.43,1.43,0,0,0,1.42,1.42h11.4Zm0-28.35H22.51V2h1a2.41,2.41,0,0,1,1.72.71l7.84,7.85a2.43,2.43,0,0,1,.71,1.71Z"/><path class="cls-2" d="M24.81,29.33l-6.16,8.6a.88.88,0,0,1-1.53,0L11,29.33c-.65-.91-.19-2.46.72-2.46h4.16V19.68c0-.8.46-1.44,1-1.44h2.05c.56,0,1,.64,1,1.44v7.19h4.16c.91,0,1.37,1.55.72,2.46Z"/></g></g></svg>