<svg xmlns="http://www.w3.org/2000/svg" viewBox="0 0 25.82 25.83"><defs><style>.cls-1{fill:#03a9f4;}</style></defs><title>Editar</title><g id="Layer_2" data-name="Layer 2"><g id="Camada_1" data-name="Camada 1"><path class="cls-1" d="M24.88,3.74,22.08.94a3.17,3.17,0,0,0-4.51,0L.64,17.86,0,23.53a2.08,2.08,0,0,0,2.06,2.3H2.3L8,25.19,24.89,8.27A3.21,3.21,0,0,0,24.88,3.74Zm-5.55,7.4L7.25,23.23l-.16.14-.21,0-4.25.48L1.87,24,2,23.2,2.43,19l0-.22.16-.14L14.69,6.5l.43-.44.44.44,3.77,3.78.44.43Zm4.24-4.22-2,2-.43.43-.43-.43L16.9,5.16l-.43-.44.43-.43,2-2a1.27,1.27,0,0,1,.91-.37,1.31,1.31,0,0,1,.92.37l2.81,2.81A1.31,1.31,0,0,1,23.57,6.92Z"/></g></g></svg>