<svg xmlns="http://www.w3.org/2000/svg" viewBox="0 0 28.14 28.14"><defs><style>.cls-1{fill:#fbb03b;}.cls-2{fill:none;stroke:#fbb03b;stroke-linecap:round;stroke-linejoin:round;stroke-width:2px;}</style></defs><title>Erro no Upload</title><g id="Layer_2" data-name="Layer 2"><g id="Camada_1" data-name="Camada 1"><path class="cls-1" d="M14.07,3a2.32,2.32,0,0,1,2.11,1.3l8.71,17.43a2.36,2.36,0,0,1-2.11,3.41H5.36a2.36,2.36,0,0,1-2.11-3.41L12,4.3A2.34,2.34,0,0,1,14.07,3m0-3A5.32,5.32,0,0,0,9.28,3L.57,20.38a5.36,5.36,0,0,0,4.79,7.76H22.78a5.36,5.36,0,0,0,4.79-7.76L18.86,3a5.32,5.32,0,0,0-4.79-3Z"/><line class="cls-2" x1="14.07" y1="8.36" x2="14.07" y2="16.2"/><circle class="cls-1" cx="14.07" cy="20.97" r="1.18"/></g></g></svg>