<svg xmlns="http://www.w3.org/2000/svg" viewBox="0 0 39.27 43.91"><defs><style>.cls-1{fill:#fff;}</style></defs><title>Fechar Sidebar</title><g id="Layer_2" data-name="Layer 2"><g id="Camada_1" data-name="Camada 1"><path class="cls-1" d="M23.51,15.76V20H37.27a2,2,0,0,1,2,2.32A2.07,2.07,0,0,1,37.17,24H23.51v4.21A2.18,2.18,0,0,1,20.25,30L9.52,23.84a2.17,2.17,0,0,1,0-3.76l10.73-6.21A2.18,2.18,0,0,1,23.51,15.76Z"/><path class="cls-1" d="M1.5,43.91A1.5,1.5,0,0,1,0,42.41V1.5a1.5,1.5,0,0,1,3,0V42.41A1.5,1.5,0,0,1,1.5,43.91Z"/></g></g></svg>