<svg xmlns="http://www.w3.org/2000/svg" viewBox="0 0 54.96 44.92"><defs><style>.cls-1,.cls-2{fill:none;stroke:#fff;stroke-miterlimit:10;}.cls-1{stroke-width:2px;}.cls-2{stroke-width:3px;}</style></defs><title>Gerenciar curso</title><g id="Layer_2" data-name="Layer 2"><g id="Camada_1" data-name="Camada 1"><path class="cls-1" d="M43.65,16.4,43,17.55a1,1,0,0,1-1.22.43,8.82,8.82,0,0,1-2.59-1.5A1,1,0,0,1,39,15.22l.67-1.16a6.8,6.8,0,0,1-1.29-2.21H37A1,1,0,0,1,36,11a9.09,9.09,0,0,1,0-3,1,1,0,0,1,1-.84h1.33A7,7,0,0,1,39.62,5L39,3.83a1,1,0,0,1,.23-1.27,9.42,9.42,0,0,1,2.59-1.5A1,1,0,0,1,43,1.5l.66,1.15a7.28,7.28,0,0,1,2.55,0l.67-1.15a1,1,0,0,1,1.21-.44,9,9,0,0,1,2.59,1.5,1,1,0,0,1,.23,1.27L50.24,5a7.18,7.18,0,0,1,1.28,2.21h1.33a1,1,0,0,1,1,.83,8.89,8.89,0,0,1,0,3,1,1,0,0,1-1,.83H51.52a7,7,0,0,1-1.28,2.21l.66,1.16a1,1,0,0,1-.23,1.26A8.69,8.69,0,0,1,48.08,18a1,1,0,0,1-1.21-.43L46.2,16.4A7.28,7.28,0,0,1,43.65,16.4Z"/><path class="cls-2" d="M32.66,27.91l2.72,1.36a1.94,1.94,0,0,1,.84,2.34,19.19,19.19,0,0,1-3.43,5.31,1.93,1.93,0,0,1-2.45.43L28,36a13.8,13.8,0,0,1-4.43,2.56v2.71A1.93,1.93,0,0,1,22,43.16a18,18,0,0,1-6.12,0,1.94,1.94,0,0,1-1.62-1.9V38.55A13.94,13.94,0,0,1,9.82,36L7.47,37.34A1.92,1.92,0,0,1,5,36.91a18.85,18.85,0,0,1-3.41-5.3,1.93,1.93,0,0,1,.85-2.34l2.68-1.36a14.15,14.15,0,0,1,0-5.11L2.47,21.43a1.91,1.91,0,0,1-.85-2.33A18.76,18.76,0,0,1,5,13.79a1.92,1.92,0,0,1,2.44-.43l2.35,1.36a13.76,13.76,0,0,1,4.42-2.56V9.44a1.92,1.92,0,0,1,1.58-1.89,18.28,18.28,0,0,1,6.13,0,1.94,1.94,0,0,1,1.62,1.9v2.71A14,14,0,0,1,28,14.71l2.34-1.36a2,2,0,0,1,2.45.43,19.21,19.21,0,0,1,3.39,5.31,1.92,1.92,0,0,1-.8,2.34l-2.72,1.36A14.21,14.21,0,0,1,32.66,27.91Z"/><circle class="cls-2" cx="18.91" cy="25.35" r="5.69"/><circle class="cls-1" cx="44.93" cy="9.52" r="2.78"/></g></g></svg>