<svg xmlns="http://www.w3.org/2000/svg" viewBox="0 0 35.77 46.02"><defs><style>.cls-1{fill:#fff;}</style></defs><title>Importar</title><g id="Layer_2" data-name="Layer 2"><g id="Camada_1" data-name="Camada 1"><path class="cls-1" d="M24.84,37.18l-5-7.76,5-7.76a.47.47,0,0,0,0-.47.44.44,0,0,0-.39-.24h-2.8a.46.46,0,0,0-.41.25c-2.44,4.53-2.93,5.47-2.93,5.48l-.47.89-.43-.91c-.75-1.57-.91-1.85-1.29-2.52s-.72-1.25-1.63-2.95A.47.47,0,0,0,14.1,21H11.32a.44.44,0,0,0-.41.25.42.42,0,0,0,0,.46l5,7.77-5,7.76a.44.44,0,0,0,0,.47.46.46,0,0,0,.41.24h2.79a.45.45,0,0,0,.4-.24L16,35a29.12,29.12,0,0,0,1.47-2.83l.41-1,.49.93s1.35,2.6,2.92,5.5a.46.46,0,0,0,.41.24h2.79a.46.46,0,0,0,.41-.24A.44.44,0,0,0,24.84,37.18Zm0,0-5-7.76,5-7.76a.47.47,0,0,0,0-.47.44.44,0,0,0-.39-.24h-2.8a.46.46,0,0,0-.41.25c-2.44,4.53-2.93,5.47-2.93,5.48l-.47.89-.43-.91c-.75-1.57-.91-1.85-1.29-2.52s-.72-1.25-1.63-2.95A.47.47,0,0,0,14.1,21H11.32a.44.44,0,0,0-.41.25.42.42,0,0,0,0,.46l5,7.77-5,7.76a.44.44,0,0,0,0,.47.46.46,0,0,0,.41.24h2.79a.45.45,0,0,0,.4-.24L16,35a29.12,29.12,0,0,0,1.47-2.83l.41-1,.49.93s1.35,2.6,2.92,5.5a.46.46,0,0,0,.41.24h2.79a.46.46,0,0,0,.41-.24A.44.44,0,0,0,24.84,37.18Zm0,0-5-7.76,5-7.76a.47.47,0,0,0,0-.47.44.44,0,0,0-.39-.24h-2.8a.46.46,0,0,0-.41.25c-2.44,4.53-2.93,5.47-2.93,5.48l-.47.89-.43-.91c-.75-1.57-.91-1.85-1.29-2.52s-.72-1.25-1.63-2.95A.47.47,0,0,0,14.1,21H11.32a.44.44,0,0,0-.41.25.42.42,0,0,0,0,.46l5,7.77-5,7.76a.44.44,0,0,0,0,.47.46.46,0,0,0,.41.24h2.79a.45.45,0,0,0,.4-.24L16,35a29.12,29.12,0,0,0,1.47-2.83l.41-1,.49.93s1.35,2.6,2.92,5.5a.46.46,0,0,0,.41.24h2.79a.46.46,0,0,0,.41-.24A.44.44,0,0,0,24.84,37.18Zm0,0-5-7.76,5-7.76a.47.47,0,0,0,0-.47.44.44,0,0,0-.39-.24h-2.8a.46.46,0,0,0-.41.25c-2.44,4.53-2.93,5.47-2.93,5.48l-.47.89-.43-.91c-.75-1.57-.91-1.85-1.29-2.52s-.72-1.25-1.63-2.95A.47.47,0,0,0,14.1,21H11.32a.44.44,0,0,0-.41.25.42.42,0,0,0,0,.46l5,7.77-5,7.76a.44.44,0,0,0,0,.47.46.46,0,0,0,.41.24h2.79a.45.45,0,0,0,.4-.24L16,35a29.12,29.12,0,0,0,1.47-2.83l.41-1,.49.93s1.35,2.6,2.92,5.5a.46.46,0,0,0,.41.24h2.79a.46.46,0,0,0,.41-.24A.44.44,0,0,0,24.84,37.18Zm0,0-5-7.76,5-7.76a.47.47,0,0,0,0-.47.44.44,0,0,0-.39-.24h-2.8a.46.46,0,0,0-.41.25c-2.44,4.53-2.93,5.47-2.93,5.48l-.47.89-.43-.91c-.75-1.57-.91-1.85-1.29-2.52s-.72-1.25-1.63-2.95A.47.47,0,0,0,14.1,21H11.32a.44.44,0,0,0-.41.25.42.42,0,0,0,0,.46l5,7.77-5,7.76a.44.44,0,0,0,0,.47.46.46,0,0,0,.41.24h2.79a.45.45,0,0,0,.4-.24L16,35a29.12,29.12,0,0,0,1.47-2.83l.41-1,.49.93s1.35,2.6,2.92,5.5a.46.46,0,0,0,.41.24h2.79a.46.46,0,0,0,.41-.24A.44.44,0,0,0,24.84,37.18Zm0,0-5-7.76,5-7.76a.47.47,0,0,0,0-.47.44.44,0,0,0-.39-.24h-2.8a.46.46,0,0,0-.41.25c-2.44,4.53-2.93,5.47-2.93,5.48l-.47.89-.43-.91c-.75-1.57-.91-1.85-1.29-2.52s-.72-1.25-1.63-2.95A.47.47,0,0,0,14.1,21H11.32a.44.44,0,0,0-.41.25.42.42,0,0,0,0,.46l5,7.77-5,7.76a.44.44,0,0,0,0,.47.46.46,0,0,0,.41.24h2.79a.45.45,0,0,0,.4-.24L16,35a29.12,29.12,0,0,0,1.47-2.83l.41-1,.49.93s1.35,2.6,2.92,5.5a.46.46,0,0,0,.41.24h2.79a.46.46,0,0,0,.41-.24A.44.44,0,0,0,24.84,37.18Zm9.63-28L26.63,1.29A4.41,4.41,0,0,0,23.5,0H4.43A4.43,4.43,0,0,0,0,4.42V41.6A4.43,4.43,0,0,0,4.43,46H31.34a4.43,4.43,0,0,0,4.43-4.42V12.32A4.47,4.47,0,0,0,34.47,9.14Zm-.7,32.46A2.43,2.43,0,0,1,31.34,44H4.43A2.43,2.43,0,0,1,2,41.6V4.42A2.43,2.43,0,0,1,4.43,2H21V13.4a1.43,1.43,0,0,0,1.42,1.42h11.4Zm0-28.35H22.51V2h1a2.41,2.41,0,0,1,1.72.71l7.84,7.85a2.43,2.43,0,0,1,.71,1.71Zm-12.51,8c-2.44,4.53-2.93,5.47-2.93,5.48l-.47.89-.43-.91c-.75-1.57-.91-1.85-1.29-2.52s-.72-1.25-1.63-2.95A.47.47,0,0,0,14.1,21H11.32a.44.44,0,0,0-.41.25.42.42,0,0,0,0,.46l5,7.77-5,7.76a.44.44,0,0,0,0,.47.46.46,0,0,0,.41.24h2.79a.45.45,0,0,0,.4-.24L16,35a29.12,29.12,0,0,0,1.47-2.83l.41-1,.49.93s1.35,2.6,2.92,5.5a.46.46,0,0,0,.41.24h2.79a.46.46,0,0,0,.41-.24.44.44,0,0,0,0-.47l-5-7.76,5-7.76a.47.47,0,0,0,0-.47.44.44,0,0,0-.39-.24h-2.8A.46.46,0,0,0,21.26,21.2Zm3.58,16-5-7.76,5-7.76a.47.47,0,0,0,0-.47.44.44,0,0,0-.39-.24h-2.8a.46.46,0,0,0-.41.25c-2.44,4.53-2.93,5.47-2.93,5.48l-.47.89-.43-.91c-.75-1.57-.91-1.85-1.29-2.52s-.72-1.25-1.63-2.95A.47.47,0,0,0,14.1,21H11.32a.44.44,0,0,0-.41.25.42.42,0,0,0,0,.46l5,7.77-5,7.76a.44.44,0,0,0,0,.47.46.46,0,0,0,.41.24h2.79a.45.45,0,0,0,.4-.24L16,35a29.12,29.12,0,0,0,1.47-2.83l.41-1,.49.93s1.35,2.6,2.92,5.5a.46.46,0,0,0,.41.24h2.79a.46.46,0,0,0,.41-.24A.44.44,0,0,0,24.84,37.18Zm0,0-5-7.76,5-7.76a.47.47,0,0,0,0-.47.44.44,0,0,0-.39-.24h-2.8a.46.46,0,0,0-.41.25c-2.44,4.53-2.93,5.47-2.93,5.48l-.47.89-.43-.91c-.75-1.57-.91-1.85-1.29-2.52s-.72-1.25-1.63-2.95A.47.47,0,0,0,14.1,21H11.32a.44.44,0,0,0-.41.25.42.42,0,0,0,0,.46l5,7.77-5,7.76a.44.44,0,0,0,0,.47.46.46,0,0,0,.41.24h2.79a.45.45,0,0,0,.4-.24L16,35a29.12,29.12,0,0,0,1.47-2.83l.41-1,.49.93s1.35,2.6,2.92,5.5a.46.46,0,0,0,.41.24h2.79a.46.46,0,0,0,.41-.24A.44.44,0,0,0,24.84,37.18Z"/></g></g></svg>