<svg xmlns="http://www.w3.org/2000/svg" viewBox="0 0 19.38 19.38"><defs><style>.cls-1{fill:#4dc1f6;}</style></defs><title>Info</title><g id="Layer_2" data-name="Layer 2"><g id="Camada_1" data-name="Camada 1"><path class="cls-1" d="M8.53,11.92a4.6,4.6,0,0,1,.27-1.74,3.53,3.53,0,0,1,1-1.28,5.22,5.22,0,0,0,.94-1,1.65,1.65,0,0,0,.23-.83c0-.89-.4-1.33-1.21-1.33a1.23,1.23,0,0,0-.93.36,1.4,1.4,0,0,0-.36,1H6.17a3,3,0,0,1,1-2.33,3.71,3.71,0,0,1,2.59-.85,3.77,3.77,0,0,1,2.56.8A2.87,2.87,0,0,1,13.21,7a2.71,2.71,0,0,1-.3,1.25,5.18,5.18,0,0,1-1,1.31l-.63.6a2.15,2.15,0,0,0-.68,1.34l0,.47Zm-.23,2.4a1.12,1.12,0,0,1,.36-.86,1.25,1.25,0,0,1,.91-.34,1.25,1.25,0,0,1,.91.34,1.22,1.22,0,0,1,0,1.7,1.26,1.26,0,0,1-.92.34,1.25,1.25,0,0,1-.92-.34A1.12,1.12,0,0,1,8.3,14.32Z"/><path class="cls-1" d="M9.69,1.33A8.36,8.36,0,1,1,1.33,9.69,8.36,8.36,0,0,1,9.69,1.33M9.69,0a9.69,9.69,0,1,0,9.69,9.69A9.7,9.7,0,0,0,9.69,0Z"/></g></g></svg>