<svg xmlns="http://www.w3.org/2000/svg" viewBox="0 0 55.15 33.24"><defs><style>.cls-1{fill:#fff;}</style></defs><g id="Camada_2" data-name="Camada 2"><g id="Camada_1-2" data-name="Camada 1"><path class="cls-1" d="M46.18,18.13h-1l-.21.05a10.51,10.51,0,0,1-8.76,0l-1.26-.05a9,9,0,0,0-9,9v2.62a3.53,3.53,0,0,0,3.53,3.52H51.62a3.53,3.53,0,0,0,3.53-3.52V27.1A9,9,0,0,0,46.18,18.13ZM52.7,29.72a1.07,1.07,0,0,1-1.08,1.07H29.46a1.07,1.07,0,0,1-1.08-1.07V27.1a6.52,6.52,0,0,1,6.52-6.52h.64a13,13,0,0,0,10,0h.64A6.52,6.52,0,0,1,52.7,27.1Z"/><path class="cls-1" d="M32,8.56A8.56,8.56,0,1,0,40.54,0,8.57,8.57,0,0,0,32,8.56Zm8.56-6.11a6.11,6.11,0,1,1-6.11,6.11A6.12,6.12,0,0,1,40.54,2.45Z"/><path class="cls-1" d="M19.79,32.69a5,5,0,0,1-3.72-1.63l-2.85-3.14a5,5,0,0,1,7.43-6.77l2.86,3.13a5,5,0,0,1-3.72,8.41ZM16.93,22.51a2,2,0,0,0-1.49,3.39L18.29,29a2,2,0,1,0,3-2.73l-2.85-3.13A2,2,0,0,0,16.93,22.51Z"/><path class="cls-1" d="M14.56,23.43A1.49,1.49,0,0,1,13.47,23L.41,9.19A1.5,1.5,0,0,1,2.59,7.12L15.65,20.89a1.5,1.5,0,0,1-1.09,2.54Z"/></g></g></svg>