<svg xmlns="http://www.w3.org/2000/svg" viewBox="0 0 48.3 39.95"><defs><style>.cls-1{fill:#fff;}</style></defs><title>Logo sidebar</title><g id="Layer_2" data-name="Layer 2"><g id="Camada_1" data-name="Camada 1"><path class="cls-1" d="M28.82,18.36l-12,6.94,6,1.62a1.25,1.25,0,0,1,.88,1.53,1.26,1.26,0,0,1-1.21.92,1.22,1.22,0,0,1-.32,0l-9.14-2.45a1.25,1.25,0,0,1-.89-1.53l1.63-6.08a1.26,1.26,0,0,1,1.54-.89,1.24,1.24,0,0,1,.88,1.53l-.9,3.36L27.56,16.2a15.06,15.06,0,1,0,1.26,2.16ZM10.29,14.7a1.13,1.13,0,1,1-1.13,1.13A1.13,1.13,0,0,1,10.29,14.7ZM20.5,34.12A10.74,10.74,0,0,1,5.82,30.19,10.78,10.78,0,0,1,7,17.84a1.25,1.25,0,0,1,1.91,1.62A8.24,8.24,0,0,0,19.25,32a1.25,1.25,0,0,1,1.71.46A1.23,1.23,0,0,1,20.5,34.12Z"/><path class="cls-1" d="M38.09,12.43a1.25,1.25,0,0,1-.18.51,1.16,1.16,0,0,1-.43.42l-2.42,1.4h0l-6.24,3.6c-.18-.37-.37-.74-.59-1.11s-.43-.71-.67-1.05l6.25-3.61h0l2.42-1.39a1.24,1.24,0,0,1,1.7.45A1.27,1.27,0,0,1,38.09,12.43Z"/><path class="cls-1" d="M47.38,11.5l-5.25-1.41L41,9.79A1.26,1.26,0,0,0,40.53,9a1.24,1.24,0,0,0-1.38-.09L37,10.14l-2.61,1.51a1.28,1.28,0,0,0-.59.76l0,.18h0a1.89,1.89,0,0,0,.24,1.31,1.86,1.86,0,0,0,1,.86h0l.18.05,6.49,1.75a2.22,2.22,0,0,0,.51.06,1.89,1.89,0,0,0,1-.26l4.46-2.58a1.25,1.25,0,0,0-.3-2.28Zm-5.22,2.58-4.25-1.14-.49-.13.67-.38,1.16-.68a1.83,1.83,0,0,0,.7.34l3.87,1Z"/><path class="cls-1" d="M46.4.41A2,2,0,0,0,44.22.26L36.5,4.72a2,2,0,0,0-.92,1.2l-1.74,6.49,0,.18h0A1.27,1.27,0,0,0,35.05,14a1.27,1.27,0,0,0,.63-.17l1.74-1,.67-.38,1.16-.68,2.88-1.66,3-1.74a1.28,1.28,0,0,0,.59-.76l1.37-5.12A2,2,0,0,0,46.4.41Zm-2.95,6-4.3,2.49L37,10.14l.9-3.36,6.41-3.71Z"/></g></g></svg>