<svg xmlns="http://www.w3.org/2000/svg" viewBox="0 0 156.18 48.89"><defs><style>.cls-1{font-size:45.1px;font-family:Raleway-Bold, Raleway;font-weight:700;}.cls-1,.cls-3{fill:#fff;}.cls-2{letter-spacing:-0.03em;}</style></defs><title>Logo aberto</title><g id="Layer_2" data-name="Layer 2"><g id="Camada_1" data-name="Camada 1"><text class="cls-1" transform="translate(72.24 38.56)">CF<tspan class="cls-2" x="56.83" y="0">P</tspan></text><path class="cls-3" d="M28.82,22.84l-12,6.93,6,1.62a1.25,1.25,0,1,1-.65,2.41l-9.14-2.45a1.24,1.24,0,0,1-.89-1.53l1.63-6.08a1.25,1.25,0,1,1,2.42.64l-.9,3.36,12.25-7.07a15.08,15.08,0,1,0,1.26,2.17ZM10.29,19.17A1.13,1.13,0,1,1,9.16,20.3,1.14,1.14,0,0,1,10.29,19.17ZM20.5,38.6A10.75,10.75,0,0,1,7,22.31a1.25,1.25,0,0,1,1.91,1.62A8.25,8.25,0,0,0,13,37.26a8.16,8.16,0,0,0,6.26-.83A1.25,1.25,0,1,1,20.5,38.6Z"/><path class="cls-3" d="M38.09,16.9a1.26,1.26,0,0,1-.61.93l-2.42,1.4h0l-6.24,3.61a11.79,11.79,0,0,0-.59-1.11c-.21-.37-.43-.72-.67-1.06l6.25-3.6h0l2.42-1.39a1.25,1.25,0,0,1,1.86,1.23Z"/><path class="cls-3" d="M47.38,16l-5.25-1.4L41,14.26a1.26,1.26,0,0,0-.47-.77,1.24,1.24,0,0,0-1.38-.09L37,14.61l-2.61,1.52a1.26,1.26,0,0,0-.59.75l0,.18h0a2,2,0,0,0,1.25,2.16h0l.18.05L41.73,21a2.24,2.24,0,0,0,.51.07,1.9,1.9,0,0,0,1-.27l4.46-2.57a1.25,1.25,0,0,0-.3-2.29Zm-5.22,2.59-4.25-1.15-.49-.13.67-.38,1.16-.68a2,2,0,0,0,.7.35l3.87,1Z"/><path class="cls-3" d="M46.4,4.88a2,2,0,0,0-2.18-.14L36.5,9.19a2.06,2.06,0,0,0-.92,1.2l-1.74,6.49,0,.18h0a1.25,1.25,0,0,0,.48,1.13,1.29,1.29,0,0,0,.76.26,1.27,1.27,0,0,0,.63-.17l1.74-1,.67-.38,1.16-.68,2.88-1.65,3-1.75a1.23,1.23,0,0,0,.59-.76l1.37-5.12A2,2,0,0,0,46.4,4.88Zm-2.95,6-4.3,2.48L37,14.61l.9-3.36,6.41-3.7Z"/></g></g></svg>