<svg xmlns="http://www.w3.org/2000/svg" viewBox="0 0 165.99 138.6"><defs><style>.cls-1{fill:#f39200;}.cls-2{fill:#97c21e;}</style></defs><title>Upload arquivos</title><g id="Layer_2" data-name="Layer 2"><g id="Camada_1" data-name="Camada 1"><path class="cls-1" d="M97.69,94l3.9-4.25,3.37.85-5.91,6,2.47,8.24L98.1,104l-1.49-5.67-4,4.3-3.41-.85,6.05-6.12-2.39-8.1,3.37.84Z"/><path class="cls-1" d="M106.52,103.6l6.23,1.56-.59,2.35L103,105.23,106.55,91l2.93.73Z"/><path class="cls-1" d="M134,103.65l3.9-4.25,3.37.85-5.91,6,2.47,8.24-3.41-.85-1.5-5.67-4,4.3-3.42-.85,6.05-6.12-2.39-8.1,3.38.84Z"/><path class="cls-1" d="M122.12,106.42a1.52,1.52,0,0,0-.28-1.4A7.58,7.58,0,0,0,120,103.6a14.68,14.68,0,0,1-2.14-1.54,4,4,0,0,1-1.55-4,3.45,3.45,0,0,1,1.13-1.87,4.2,4.2,0,0,1,2.17-1,7.19,7.19,0,0,1,2.82.15A6.43,6.43,0,0,1,125,96.53a4.39,4.39,0,0,1,1.46,2,4.11,4.11,0,0,1,.1,2.41l-2.89-.7a1.94,1.94,0,0,0-.24-1.65,2.54,2.54,0,0,0-1.58-.94,2.69,2.69,0,0,0-1.75.05,1.45,1.45,0,0,0-.88,1,1.39,1.39,0,0,0,.42,1.31,8,8,0,0,0,1.82,1.36,9,9,0,0,1,3.14,2.7,3.77,3.77,0,0,1,.47,3,3.43,3.43,0,0,1-2.07,2.52,6.16,6.16,0,0,1-4,.14,7.3,7.3,0,0,1-2.8-1.3,4.81,4.81,0,0,1-1.64-2.11,4.27,4.27,0,0,1-.12-2.56l2.9.7c-.37,1.55.37,2.54,2.22,3a2.73,2.73,0,0,0,1.71,0A1.43,1.43,0,0,0,122.12,106.42Z"/><path class="cls-1" d="M164.41,58.93l-12.62-21a11,11,0,0,0-6.81-5l-40.91-10.2a11.08,11.08,0,0,0-13.41,8L70.78,110.48a11.07,11.07,0,0,0,8.07,13.4l57.73,14.39A11.08,11.08,0,0,0,150,130.22l15.66-62.81A11.11,11.11,0,0,0,164.41,58.93Zm-21.18,69.61a4.09,4.09,0,0,1-5,3L80.53,117.11a4.09,4.09,0,0,1-3-4.94L97.42,32.4a4.09,4.09,0,0,1,5-3L136.59,38,130.8,61.18A4.42,4.42,0,0,0,134,66.53l23.22,5.79Zm15.46-62.06L137,61.08l5.4-21.67.89.23a4,4,0,0,1,2.52,1.86l12.62,21a4.08,4.08,0,0,1,.47,3.09Z"/><path class="cls-2" d="M49.52,79.17a5.21,5.21,0,0,1-.69,4.06,6.17,6.17,0,0,1-3.65,2.42A5.52,5.52,0,0,1,40.4,85a7.78,7.78,0,0,1-2.95-4.6l-.24-.86a8.82,8.82,0,0,1-.28-3.8,5.62,5.62,0,0,1,1.4-2.95,6.68,6.68,0,0,1,7.19-1.47,5.6,5.6,0,0,1,2.74,3.21l-2.91.8A3.08,3.08,0,0,0,44,73.55a2.9,2.9,0,0,0-2.16-.06A2.57,2.57,0,0,0,40,75.14a6,6,0,0,0,.16,3.44l.29,1.07A6.42,6.42,0,0,0,42,82.81a2.54,2.54,0,0,0,2.49.46,3,3,0,0,0,1.84-1.18A2.9,2.9,0,0,0,46.61,80Z"/><path class="cls-2" d="M70,74.8l.26-11.53,3.25-.9-1,15.52-3,.84-8.82-12.8L63.9,65Z"/><path class="cls-2" d="M58.48,70.07a3.82,3.82,0,0,0-.63-.19,7.26,7.26,0,0,0-1.05-.12,7.63,7.63,0,0,0-1.25,0,4.61,4.61,0,0,0-1.27.3,2.87,2.87,0,0,0-1.5,1,1.44,1.44,0,0,0-.11,1.34,1.2,1.2,0,0,0,.47.63,1.85,1.85,0,0,0,.77.28,5.78,5.78,0,0,0,1.12,0c.44,0,.94-.08,1.5-.15.74-.07,1.42-.1,2-.1a5.16,5.16,0,0,1,1.68.25,3.5,3.5,0,0,1,1.3.78,4,4,0,0,1,.91,1.48,4.34,4.34,0,0,1,.29,2,3.83,3.83,0,0,1-.65,1.69,5,5,0,0,1-1.36,1.31,8.64,8.64,0,0,1-1.84,1,11.34,11.34,0,0,1-3.23.68,9.93,9.93,0,0,1-3.2-.3l.32-2.74a3.94,3.94,0,0,0,.8.21,8.75,8.75,0,0,0,1.28.16,8.17,8.17,0,0,0,1.55,0,7.06,7.06,0,0,0,1.62-.38c1.47-.56,2-1.3,1.67-2.24a1.18,1.18,0,0,0-.53-.66,2.17,2.17,0,0,0-.92-.28,7.78,7.78,0,0,0-1.28,0l-1.63.12a13.05,13.05,0,0,1-1.93.06,5,5,0,0,1-1.49-.31,2.87,2.87,0,0,1-1.1-.73,3.63,3.63,0,0,1-.76-1.27,4.67,4.67,0,0,1-.31-2,4.11,4.11,0,0,1,.57-1.76,5.08,5.08,0,0,1,1.29-1.42,7,7,0,0,1,1.85-1,8.07,8.07,0,0,1,2.83-.55,10.43,10.43,0,0,1,2.53.28Z"/><path class="cls-2" d="M29,102.61,7.11,23.38a4.09,4.09,0,0,1,2.87-5L44,9,50.33,32a4.43,4.43,0,0,0,5.43,3.09l23.07-6.38,4,14.32,3.43-13.75-2.48-9a11.09,11.09,0,0,0-5.24-6.78L57.16,1.43a11,11,0,0,0-8.39-1L8.12,11.63A11.08,11.08,0,0,0,.4,25.24l21.88,79.23a11.06,11.06,0,0,0,13.61,7.69l31.86-8.79,1.94-7.77L34,105.45A4.1,4.1,0,0,1,29,102.61ZM50.62,7.12a4.14,4.14,0,0,1,3.12.38L75.07,19.62A4.16,4.16,0,0,1,77,22.07l.24.87L55.69,28.89,49.74,7.37Z"/></g></g></svg>