<svg id="Componente_22_2" data-name="Componente 22 – 2" xmlns="http://www.w3.org/2000/svg" width="42.365" height="46.439" viewBox="0 0 42.365 46.439">
  <path id="Caminho_187" data-name="Caminho 187" d="M172.487,172.562c-1.342-2.845-.056-9.4,4.867-15.641,0,0-4.728,7.846-1.318,13.825,5.3,9.3,20.81-6.342,22.418-8.174,10.514-11.981,14.636-25.557,9.2-30.323-2.023-1.776-5.087-2.077-8.678-1.138,10.757,2.868.809,19.918.809,19.918s4.818-14.722-3.737-14.387c-5.943.232-12.885,6.36-16.883,10.594-10.944,11.59-14.378,22.676-8.947,27.442a8.633,8.633,0,0,0,8.952,1.834C176.493,176.826,174.049,175.873,172.487,172.562Z" transform="translate(-167.687 -130.589)" fill="#6f26af"/>
  <path id="Caminho_188" data-name="Caminho 188" d="M341.749,307.871c-4.627,6.406-10.179,10.3-12.4,8.693s-.271-8.1,4.356-14.5,10.179-10.3,12.4-8.693S346.376,301.465,341.749,307.871Z" transform="translate(-316.261 -280.707)" fill="#5b148a"/>
  <g id="Grupo_65" data-name="Grupo 65" transform="translate(11.747 14.99)">
    <path id="Caminho_189" data-name="Caminho 189" d="M338.269,332.474a8.358,8.358,0,1,0-9.809,12.339s2.183-.749,5.684-5.282l.172-.225c.544-.715,1.019-1.393,1.434-2.026A22.641,22.641,0,0,0,338.269,332.474Z" transform="translate(-322.826 -328.552)" fill="#e91960"/>
  </g>
</svg>