<svg xmlns="http://www.w3.org/2000/svg" viewBox="0 0 32.04 40.93"><defs><style>.cls-1{fill:#fff;}</style></defs><title>Relatório Ativo</title><g id="Layer_2" data-name="Layer 2"><g id="Camada_1" data-name="Camada 1"><path class="cls-1" d="M30.76,8.08,24,1.27A4.31,4.31,0,0,0,20.89,0H4.34A4.34,4.34,0,0,0,0,4.34V36.6a4.34,4.34,0,0,0,4.34,4.33H27.69A4.34,4.34,0,0,0,32,36.6V11.19A4.32,4.32,0,0,0,30.76,8.08ZM29.3,36.6a1.61,1.61,0,0,1-1.61,1.6H4.34a1.6,1.6,0,0,1-1.6-1.6V4.34a1.6,1.6,0,0,1,1.6-1.6H18.18v9.39a1.74,1.74,0,0,0,1.73,1.73H29.3Zm0-25.1H20.53V2.74h.36A1.6,1.6,0,0,1,22,3.2L28.83,10a1.61,1.61,0,0,1,.47,1.13Z"/><path class="cls-1" d="M6.52,8.48h8.63a1.37,1.37,0,1,0,0-2.73H6.52a1.37,1.37,0,0,0,0,2.73Z"/><path class="cls-1" d="M15.15,14.23a1.37,1.37,0,1,0,0-2.73H6.52a1.37,1.37,0,0,0,0,2.73Z"/><path class="cls-1" d="M5.65,23.32v7.14a1.31,1.31,0,0,0,1.24,1.37H25.31a1.31,1.31,0,0,0,1.25-1.37V23.32A1.31,1.31,0,0,0,25.31,22H6.89A1.31,1.31,0,0,0,5.65,23.32Zm2.12,6.21V24.25H24.44v5.28Z"/></g></g></svg>